<svg 
 xmlns="http://www.w3.org/2000/svg"
 xmlns:xlink="http://www.w3.org/1999/xlink"
 width="65px" height="52px">
<path fill-rule="evenodd"  fill="rgb(254, 62, 87)"
 d="M63.250,39.875 C62.283,39.875 61.500,39.098 61.500,38.140 C61.500,37.183 62.283,36.406 63.250,36.406 C64.216,36.406 65.000,37.183 65.000,38.140 C65.000,39.098 64.216,39.875 63.250,39.875 ZM63.250,27.719 C62.283,27.719 61.500,26.949 61.500,26.000 C61.500,25.051 62.283,24.281 63.250,24.281 C64.216,24.281 65.000,25.051 65.000,26.000 C65.000,26.949 64.216,27.719 63.250,27.719 ZM63.250,15.594 C62.283,15.594 61.500,14.817 61.500,13.859 C61.500,12.901 62.283,12.125 63.250,12.125 C64.216,12.125 65.000,12.901 65.000,13.859 C65.000,14.817 64.216,15.594 63.250,15.594 ZM63.250,3.468 C62.283,3.468 61.500,2.692 61.500,1.734 C61.500,0.776 62.283,-0.000 63.250,-0.000 C64.216,-0.000 65.000,0.776 65.000,1.734 C65.000,2.692 64.216,3.468 63.250,3.468 ZM50.953,52.000 C49.978,52.000 49.187,51.223 49.187,50.265 C49.187,49.308 49.978,48.531 50.953,48.531 C51.928,48.531 52.719,49.308 52.719,50.265 C52.719,51.223 51.928,52.000 50.953,52.000 ZM50.953,39.875 C49.978,39.875 49.187,39.098 49.187,38.140 C49.187,37.183 49.978,36.406 50.953,36.406 C51.928,36.406 52.719,37.183 52.719,38.140 C52.719,39.098 51.928,39.875 50.953,39.875 ZM50.953,27.719 C49.978,27.719 49.187,26.949 49.187,26.000 C49.187,25.051 49.978,24.281 50.953,24.281 C51.928,24.281 52.719,25.051 52.719,26.000 C52.719,26.949 51.928,27.719 50.953,27.719 ZM50.953,15.594 C49.978,15.594 49.187,14.817 49.187,13.859 C49.187,12.901 49.978,12.125 50.953,12.125 C51.928,12.125 52.719,12.901 52.719,13.859 C52.719,14.817 51.928,15.594 50.953,15.594 ZM50.953,3.468 C49.978,3.468 49.187,2.692 49.187,1.734 C49.187,0.776 49.978,-0.000 50.953,-0.000 C51.928,-0.000 52.719,0.776 52.719,1.734 C52.719,2.692 51.928,3.468 50.953,3.468 ZM38.656,52.000 C37.690,52.000 36.906,51.223 36.906,50.265 C36.906,49.308 37.690,48.531 38.656,48.531 C39.623,48.531 40.406,49.308 40.406,50.265 C40.406,51.223 39.623,52.000 38.656,52.000 ZM38.656,39.875 C37.690,39.875 36.906,39.098 36.906,38.140 C36.906,37.183 37.690,36.406 38.656,36.406 C39.623,36.406 40.406,37.183 40.406,38.140 C40.406,39.098 39.623,39.875 38.656,39.875 ZM38.656,27.719 C37.690,27.719 36.906,26.949 36.906,26.000 C36.906,25.051 37.690,24.281 38.656,24.281 C39.623,24.281 40.406,25.051 40.406,26.000 C40.406,26.949 39.623,27.719 38.656,27.719 ZM38.656,15.594 C37.690,15.594 36.906,14.817 36.906,13.859 C36.906,12.901 37.690,12.125 38.656,12.125 C39.623,12.125 40.406,12.901 40.406,13.859 C40.406,14.817 39.623,15.594 38.656,15.594 ZM38.656,3.468 C37.690,3.468 36.906,2.692 36.906,1.734 C36.906,0.776 37.690,-0.000 38.656,-0.000 C39.623,-0.000 40.406,0.776 40.406,1.734 C40.406,2.692 39.623,3.468 38.656,3.468 ZM26.344,52.000 C25.377,52.000 24.594,51.223 24.594,50.265 C24.594,49.308 25.377,48.531 26.344,48.531 C27.310,48.531 28.094,49.308 28.094,50.265 C28.094,51.223 27.310,52.000 26.344,52.000 ZM26.344,39.875 C25.377,39.875 24.594,39.098 24.594,38.140 C24.594,37.183 25.377,36.406 26.344,36.406 C27.310,36.406 28.094,37.183 28.094,38.140 C28.094,39.098 27.310,39.875 26.344,39.875 ZM26.344,27.719 C25.377,27.719 24.594,26.949 24.594,26.000 C24.594,25.051 25.377,24.281 26.344,24.281 C27.310,24.281 28.094,25.051 28.094,26.000 C28.094,26.949 27.310,27.719 26.344,27.719 ZM26.344,15.594 C25.377,15.594 24.594,14.817 24.594,13.859 C24.594,12.901 25.377,12.125 26.344,12.125 C27.310,12.125 28.094,12.901 28.094,13.859 C28.094,14.817 27.310,15.594 26.344,15.594 ZM26.344,3.468 C25.377,3.468 24.594,2.692 24.594,1.734 C24.594,0.776 25.377,-0.000 26.344,-0.000 C27.310,-0.000 28.094,0.776 28.094,1.734 C28.094,2.692 27.310,3.468 26.344,3.468 ZM14.047,52.000 C13.072,52.000 12.281,51.223 12.281,50.265 C12.281,49.308 13.072,48.531 14.047,48.531 C15.022,48.531 15.812,49.308 15.812,50.265 C15.812,51.223 15.022,52.000 14.047,52.000 ZM14.047,39.875 C13.072,39.875 12.281,39.098 12.281,38.140 C12.281,37.183 13.072,36.406 14.047,36.406 C15.022,36.406 15.812,37.183 15.812,38.140 C15.812,39.098 15.022,39.875 14.047,39.875 ZM14.047,27.719 C13.072,27.719 12.281,26.949 12.281,26.000 C12.281,25.051 13.072,24.281 14.047,24.281 C15.022,24.281 15.812,25.051 15.812,26.000 C15.812,26.949 15.022,27.719 14.047,27.719 ZM14.047,15.594 C13.072,15.594 12.281,14.817 12.281,13.859 C12.281,12.901 13.072,12.125 14.047,12.125 C15.022,12.125 15.812,12.901 15.812,13.859 C15.812,14.817 15.022,15.594 14.047,15.594 ZM14.047,3.468 C13.072,3.468 12.281,2.692 12.281,1.734 C12.281,0.776 13.072,-0.000 14.047,-0.000 C15.022,-0.000 15.812,0.776 15.812,1.734 C15.812,2.692 15.022,3.468 14.047,3.468 ZM1.750,52.000 C0.783,52.000 -0.000,51.223 -0.000,50.265 C-0.000,49.308 0.783,48.531 1.750,48.531 C2.716,48.531 3.500,49.308 3.500,50.265 C3.500,51.223 2.716,52.000 1.750,52.000 ZM1.750,39.875 C0.783,39.875 -0.000,39.098 -0.000,38.140 C-0.000,37.183 0.783,36.406 1.750,36.406 C2.716,36.406 3.500,37.183 3.500,38.140 C3.500,39.098 2.716,39.875 1.750,39.875 ZM1.750,27.719 C0.783,27.719 -0.000,26.949 -0.000,26.000 C-0.000,25.051 0.783,24.281 1.750,24.281 C2.716,24.281 3.500,25.051 3.500,26.000 C3.500,26.949 2.716,27.719 1.750,27.719 ZM1.750,15.594 C0.783,15.594 -0.000,14.817 -0.000,13.859 C-0.000,12.901 0.783,12.125 1.750,12.125 C2.716,12.125 3.500,12.901 3.500,13.859 C3.500,14.817 2.716,15.594 1.750,15.594 ZM1.750,3.468 C0.783,3.468 -0.000,2.692 -0.000,1.734 C-0.000,0.776 0.783,-0.000 1.750,-0.000 C2.716,-0.000 3.500,0.776 3.500,1.734 C3.500,2.692 2.716,3.468 1.750,3.468 ZM63.250,48.531 C64.216,48.531 65.000,49.308 65.000,50.265 C65.000,51.223 64.216,52.000 63.250,52.000 C62.283,52.000 61.500,51.223 61.500,50.265 C61.500,49.308 62.283,48.531 63.250,48.531 Z"/>
</svg>