<svg 
 xmlns="http://www.w3.org/2000/svg"
 xmlns:xlink="http://www.w3.org/1999/xlink"
 width="120px" height="121px">
<path fill-rule="evenodd"  fill="rgb(255, 181, 52)"
 d="M119.859,64.670 C119.838,64.983 119.580,65.221 119.274,65.221 C119.261,65.221 119.247,65.221 119.233,65.220 C118.910,65.198 118.666,64.915 118.687,64.589 C118.779,63.234 118.826,61.856 118.826,60.493 C118.826,59.248 118.787,57.986 118.710,56.742 C118.690,56.416 118.936,56.135 119.259,56.115 C119.591,56.091 119.861,56.343 119.881,56.669 C119.960,57.936 119.999,59.224 119.999,60.493 C119.999,61.882 119.952,63.288 119.859,64.670 ZM118.976,53.172 C118.950,53.175 118.924,53.177 118.899,53.177 C118.609,53.177 118.357,52.960 118.318,52.663 C118.141,51.313 117.915,49.953 117.647,48.620 C117.582,48.300 117.788,47.987 118.105,47.922 C118.427,47.857 118.733,48.065 118.797,48.384 C119.072,49.744 119.301,51.131 119.481,52.508 C119.524,52.832 119.298,53.129 118.976,53.172 ZM117.421,45.047 C117.369,45.061 117.316,45.069 117.264,45.069 C117.007,45.069 116.771,44.897 116.699,44.635 C116.340,43.326 115.930,42.010 115.479,40.725 C115.371,40.417 115.532,40.079 115.837,39.969 C116.144,39.861 116.478,40.023 116.586,40.330 C117.046,41.642 117.464,42.984 117.831,44.319 C117.917,44.634 117.734,44.960 117.421,45.047 ZM117.331,76.277 C117.643,76.366 117.824,76.693 117.736,77.007 C117.361,78.347 116.934,79.686 116.468,80.989 C116.382,81.230 116.156,81.381 115.916,81.381 C115.850,81.381 115.782,81.369 115.717,81.345 C115.412,81.235 115.254,80.896 115.364,80.588 C115.820,79.311 116.238,77.998 116.607,76.685 C116.694,76.370 117.020,76.189 117.331,76.277 ZM114.766,37.223 C114.691,37.256 114.611,37.272 114.534,37.272 C114.307,37.272 114.091,37.138 113.994,36.915 C113.461,35.673 112.874,34.428 112.251,33.217 C112.102,32.927 112.213,32.570 112.502,32.419 C112.788,32.270 113.144,32.381 113.293,32.672 C113.928,33.908 114.527,35.177 115.072,36.445 C115.200,36.744 115.064,37.093 114.766,37.223 ZM114.627,84.095 C114.923,84.228 115.057,84.577 114.927,84.876 C114.373,86.144 113.765,87.412 113.121,88.645 C113.016,88.845 112.812,88.961 112.601,88.961 C112.509,88.961 112.416,88.939 112.329,88.893 C112.042,88.741 111.931,88.382 112.083,88.093 C112.714,86.884 113.309,85.641 113.853,84.399 C113.983,84.100 114.331,83.965 114.627,84.095 ZM111.062,29.846 C110.967,29.904 110.862,29.933 110.758,29.933 C110.560,29.933 110.367,29.831 110.256,29.649 C109.554,28.489 108.802,27.338 108.021,26.226 C107.834,25.959 107.896,25.591 108.160,25.401 C108.425,25.212 108.792,25.275 108.978,25.542 C109.776,26.675 110.543,27.850 111.258,29.032 C111.427,29.312 111.339,29.676 111.062,29.846 ZM107.115,65.219 C107.098,65.219 107.081,65.219 107.064,65.217 C106.741,65.189 106.502,64.903 106.530,64.577 C106.644,63.231 106.703,61.857 106.703,60.493 C106.703,59.989 106.695,59.487 106.679,58.986 C106.669,58.660 106.923,58.386 107.247,58.376 C107.582,58.357 107.842,58.622 107.852,58.949 C107.869,59.461 107.877,59.976 107.877,60.493 C107.877,61.891 107.817,63.299 107.699,64.679 C107.673,64.987 107.417,65.219 107.115,65.219 ZM107.031,55.427 C107.008,55.430 106.984,55.432 106.961,55.432 C106.668,55.432 106.415,55.210 106.379,54.910 C106.220,53.557 106.001,52.200 105.729,50.875 C105.663,50.555 105.867,50.242 106.184,50.176 C106.500,50.109 106.812,50.314 106.878,50.634 C107.158,51.992 107.382,53.384 107.545,54.770 C107.583,55.095 107.353,55.389 107.031,55.427 ZM106.013,23.184 C105.843,23.184 105.675,23.110 105.558,22.967 C104.701,21.911 103.799,20.874 102.878,19.884 C102.655,19.646 102.667,19.271 102.903,19.048 C103.140,18.825 103.512,18.836 103.733,19.074 C104.673,20.083 105.593,21.141 106.467,22.218 C106.673,22.470 106.635,22.844 106.384,23.050 C106.275,23.140 106.144,23.184 106.013,23.184 ZM100.392,17.153 C100.249,17.153 100.106,17.100 99.993,16.995 C99.001,16.067 97.966,15.164 96.917,14.311 C96.665,14.105 96.625,13.733 96.829,13.479 C97.033,13.225 97.402,13.185 97.654,13.390 C98.724,14.260 99.780,15.181 100.791,16.127 C101.029,16.349 101.042,16.724 100.822,16.963 C100.706,17.089 100.549,17.153 100.392,17.153 ZM98.292,32.502 C98.187,32.580 98.063,32.618 97.942,32.618 C97.762,32.618 97.586,32.536 97.471,32.380 C96.668,31.294 95.806,30.227 94.910,29.210 C94.694,28.966 94.716,28.592 94.959,28.375 C95.201,28.158 95.571,28.179 95.787,28.424 C96.706,29.467 97.589,30.560 98.412,31.673 C98.606,31.936 98.552,32.306 98.292,32.502 ZM95.665,55.129 C95.712,55.452 95.491,55.752 95.170,55.800 C95.141,55.804 95.112,55.806 95.084,55.806 C94.797,55.806 94.546,55.595 94.503,55.302 C94.307,53.964 94.031,52.623 93.682,51.317 C93.597,51.001 93.783,50.677 94.096,50.592 C94.408,50.505 94.731,50.694 94.815,51.009 C95.176,52.360 95.462,53.745 95.665,55.129 ZM94.001,11.953 C93.884,11.953 93.768,11.919 93.665,11.846 C92.560,11.067 91.412,10.316 90.253,9.613 C89.975,9.445 89.885,9.081 90.052,8.801 C90.218,8.521 90.579,8.429 90.857,8.599 C92.041,9.316 93.212,10.082 94.338,10.877 C94.603,11.064 94.668,11.433 94.482,11.701 C94.368,11.865 94.186,11.953 94.001,11.953 ZM92.916,26.251 C92.801,26.374 92.645,26.436 92.490,26.436 C92.345,26.436 92.200,26.382 92.086,26.275 C91.109,25.341 90.077,24.439 89.022,23.595 C88.768,23.392 88.726,23.019 88.928,22.763 C89.129,22.508 89.499,22.464 89.752,22.668 C90.834,23.534 91.890,24.458 92.893,25.415 C93.129,25.639 93.139,26.014 92.916,26.251 ZM86.961,7.688 C86.870,7.688 86.779,7.668 86.694,7.623 C85.493,7.005 84.252,6.421 83.007,5.886 C82.709,5.758 82.570,5.411 82.697,5.110 C82.825,4.809 83.169,4.668 83.467,4.797 C84.737,5.342 86.002,5.938 87.228,6.570 C87.516,6.718 87.631,7.075 87.484,7.365 C87.380,7.570 87.174,7.688 86.961,7.688 ZM86.388,20.205 C86.658,20.386 86.732,20.753 86.554,21.025 C86.441,21.197 86.254,21.290 86.064,21.290 C85.952,21.290 85.840,21.259 85.740,21.192 C84.617,20.443 83.448,19.733 82.264,19.085 C81.979,18.929 81.874,18.570 82.028,18.282 C82.184,17.996 82.540,17.889 82.825,18.045 C84.038,18.710 85.237,19.437 86.388,20.205 ZM84.043,34.192 C83.927,34.324 83.766,34.390 83.605,34.390 C83.465,34.390 83.326,34.341 83.214,34.240 C82.211,33.338 81.147,32.486 80.051,31.707 C79.786,31.520 79.722,31.151 79.909,30.884 C80.096,30.616 80.461,30.552 80.727,30.740 C81.860,31.545 82.959,32.425 83.995,33.357 C84.237,33.575 84.259,33.948 84.043,34.192 ZM79.400,4.445 C79.336,4.445 79.271,4.434 79.208,4.412 C77.934,3.968 76.626,3.563 75.322,3.209 C75.009,3.124 74.823,2.800 74.907,2.484 C74.992,2.167 75.317,1.981 75.627,2.066 C76.957,2.428 78.291,2.840 79.591,3.293 C79.898,3.400 80.061,3.737 79.955,4.046 C79.870,4.290 79.643,4.445 79.400,4.445 ZM75.204,14.701 C76.516,15.144 77.822,15.649 79.087,16.205 C79.384,16.336 79.520,16.685 79.391,16.984 C79.294,17.207 79.079,17.340 78.852,17.340 C78.774,17.340 78.694,17.324 78.618,17.290 C77.384,16.749 76.110,16.254 74.832,15.824 C74.524,15.720 74.358,15.384 74.461,15.075 C74.565,14.765 74.898,14.599 75.204,14.701 ZM77.416,29.323 C77.309,29.521 77.108,29.633 76.900,29.633 C76.805,29.633 76.709,29.610 76.620,29.560 C75.439,28.914 74.210,28.331 72.965,27.829 C72.664,27.707 72.518,27.362 72.639,27.059 C72.759,26.755 73.101,26.608 73.402,26.730 C74.689,27.250 75.960,27.853 77.181,28.521 C77.465,28.676 77.571,29.036 77.416,29.323 ZM71.475,2.293 C71.438,2.293 71.400,2.290 71.362,2.282 C70.037,2.021 68.686,1.803 67.347,1.634 C67.025,1.594 66.797,1.298 66.838,0.974 C66.878,0.650 67.171,0.418 67.493,0.460 C68.858,0.632 70.236,0.855 71.587,1.121 C71.906,1.184 72.113,1.494 72.050,1.815 C71.996,2.097 71.750,2.293 71.475,2.293 ZM71.208,13.546 C71.523,13.622 71.717,13.941 71.642,14.259 C71.577,14.530 71.336,14.712 71.072,14.712 C71.026,14.712 70.980,14.707 70.934,14.696 C69.626,14.379 68.287,14.117 66.954,13.916 C66.633,13.868 66.413,13.567 66.460,13.243 C66.508,12.920 66.806,12.699 67.128,12.745 C68.495,12.951 69.867,13.221 71.208,13.546 ZM69.855,26.120 C69.785,26.383 69.548,26.557 69.290,26.557 C69.239,26.557 69.187,26.550 69.135,26.536 C67.843,26.183 66.513,25.903 65.184,25.702 C64.863,25.654 64.643,25.353 64.690,25.030 C64.739,24.707 65.037,24.485 65.358,24.532 C66.731,24.739 68.106,25.029 69.443,25.394 C69.756,25.479 69.940,25.804 69.855,26.120 ZM63.331,1.268 C63.320,1.268 63.309,1.268 63.298,1.267 C61.953,1.192 60.578,1.162 59.233,1.180 C59.230,1.180 59.227,1.180 59.225,1.180 C58.904,1.180 58.642,0.919 58.638,0.595 C58.634,0.269 58.894,0.000 59.218,-0.004 C60.595,-0.022 61.992,0.009 63.363,0.086 C63.686,0.103 63.934,0.383 63.916,0.709 C63.899,1.024 63.640,1.268 63.331,1.268 ZM62.994,12.306 C63.318,12.327 63.564,12.607 63.544,12.933 C63.524,13.247 63.266,13.489 62.958,13.489 C62.946,13.489 62.934,13.488 62.922,13.488 C61.576,13.404 60.211,13.378 58.867,13.410 C58.551,13.412 58.274,13.158 58.266,12.832 C58.259,12.505 58.516,12.235 58.839,12.227 C60.216,12.194 61.616,12.220 62.994,12.306 ZM61.203,24.152 C61.526,24.164 61.780,24.437 61.769,24.764 C61.759,25.090 61.490,25.348 61.164,25.335 C60.770,25.322 60.393,25.327 59.978,25.315 C59.030,25.315 58.070,25.355 57.126,25.432 C57.110,25.433 57.094,25.434 57.078,25.434 C56.775,25.434 56.519,25.199 56.493,24.890 C56.468,24.564 56.708,24.279 57.031,24.253 C58.007,24.172 58.998,24.132 59.978,24.132 C60.402,24.123 60.796,24.138 61.203,24.152 ZM55.170,1.371 C53.822,1.481 52.463,1.640 51.132,1.843 C51.102,1.847 51.073,1.849 51.044,1.849 C50.758,1.849 50.508,1.639 50.464,1.346 C50.416,1.023 50.636,0.722 50.957,0.672 C52.315,0.465 53.700,0.304 55.075,0.192 C55.398,0.166 55.681,0.407 55.708,0.734 C55.733,1.059 55.493,1.345 55.170,1.371 ZM54.693,12.504 C55.014,12.469 55.305,12.704 55.341,13.028 C55.376,13.353 55.144,13.645 54.822,13.681 C53.483,13.829 52.134,14.040 50.814,14.304 C50.775,14.312 50.737,14.315 50.699,14.315 C50.424,14.315 50.179,14.121 50.124,13.839 C50.060,13.518 50.267,13.207 50.585,13.143 C51.938,12.872 53.320,12.657 54.693,12.504 ZM53.589,25.300 C53.653,25.620 53.447,25.931 53.128,25.995 C51.812,26.260 50.498,26.605 49.223,27.022 C49.163,27.042 49.101,27.051 49.042,27.051 C48.794,27.051 48.564,26.892 48.483,26.641 C48.384,26.331 48.552,25.997 48.861,25.896 C50.179,25.465 51.538,25.108 52.899,24.835 C53.215,24.772 53.526,24.980 53.589,25.300 ZM47.136,2.595 C45.819,2.890 44.495,3.237 43.201,3.625 C43.145,3.641 43.089,3.649 43.034,3.649 C42.780,3.649 42.547,3.483 42.471,3.226 C42.378,2.913 42.556,2.583 42.866,2.490 C44.187,2.095 45.537,1.741 46.880,1.440 C47.198,1.371 47.511,1.570 47.581,1.889 C47.651,2.208 47.452,2.524 47.136,2.595 ZM46.547,14.140 C46.861,14.047 47.185,14.230 47.275,14.544 C47.366,14.856 47.187,15.185 46.876,15.277 C45.585,15.656 44.294,16.099 43.038,16.593 C42.968,16.620 42.896,16.633 42.824,16.633 C42.589,16.633 42.368,16.490 42.278,16.256 C42.160,15.952 42.309,15.608 42.611,15.490 C43.900,14.984 45.224,14.530 46.547,14.140 ZM45.750,27.715 C45.886,28.012 45.756,28.363 45.462,28.500 C44.244,29.062 43.045,29.704 41.898,30.407 C41.802,30.465 41.697,30.493 41.593,30.493 C41.395,30.493 41.202,30.393 41.091,30.208 C40.923,29.930 41.011,29.565 41.288,29.396 C42.474,28.669 43.713,28.006 44.972,27.423 C45.267,27.288 45.615,27.419 45.750,27.715 ZM39.346,4.929 C38.084,5.405 36.823,5.932 35.596,6.497 C35.517,6.533 35.434,6.550 35.353,6.550 C35.130,6.550 34.917,6.422 34.818,6.204 C34.684,5.907 34.814,5.556 35.109,5.420 C36.360,4.845 37.647,4.306 38.935,3.820 C39.238,3.704 39.577,3.861 39.690,4.167 C39.804,4.473 39.650,4.814 39.346,4.929 ZM38.677,31.886 C38.876,32.144 38.830,32.516 38.574,32.717 C37.517,33.547 36.494,34.449 35.537,35.398 C35.422,35.511 35.273,35.568 35.125,35.568 C34.973,35.568 34.821,35.508 34.707,35.391 C34.479,35.157 34.482,34.783 34.713,34.554 C35.704,33.573 36.760,32.641 37.853,31.783 C38.109,31.582 38.477,31.628 38.677,31.886 ZM36.346,86.364 C36.585,86.586 36.600,86.960 36.380,87.200 C36.264,87.327 36.107,87.391 35.949,87.391 C35.806,87.391 35.664,87.339 35.551,87.234 C34.530,86.285 33.554,85.268 32.651,84.210 C32.439,83.962 32.467,83.589 32.712,83.376 C32.957,83.163 33.327,83.189 33.540,83.439 C34.414,84.461 35.359,85.446 36.346,86.364 ZM30.472,41.724 C30.361,41.903 30.170,42.000 29.976,42.000 C29.868,42.000 29.760,41.970 29.663,41.908 C29.389,41.734 29.307,41.368 29.480,41.092 C30.221,39.909 31.039,38.758 31.910,37.671 C32.115,37.416 32.484,37.377 32.735,37.582 C32.988,37.787 33.027,38.160 32.824,38.414 C31.980,39.466 31.190,40.580 30.472,41.724 ZM29.239,25.037 C29.128,25.135 28.990,25.183 28.853,25.183 C28.689,25.183 28.527,25.115 28.411,24.982 C28.198,24.735 28.222,24.362 28.466,24.147 C29.504,23.230 30.596,22.349 31.710,21.526 C31.970,21.333 32.338,21.389 32.530,21.653 C32.722,21.917 32.665,22.287 32.403,22.480 C31.317,23.283 30.252,24.143 29.239,25.037 ZM31.962,8.325 C30.776,8.973 29.598,9.672 28.459,10.402 C28.362,10.465 28.253,10.495 28.145,10.495 C27.951,10.495 27.761,10.398 27.649,10.220 C27.475,9.945 27.556,9.579 27.829,9.403 C28.991,8.659 30.193,7.946 31.401,7.284 C31.688,7.129 32.042,7.235 32.197,7.522 C32.352,7.810 32.246,8.169 31.962,8.325 ZM28.241,44.496 C28.533,44.637 28.656,44.991 28.516,45.286 C27.934,46.508 27.418,47.775 26.982,49.053 C26.899,49.297 26.671,49.452 26.428,49.452 C26.365,49.452 26.300,49.442 26.237,49.420 C25.930,49.314 25.767,48.977 25.873,48.668 C26.323,47.348 26.856,46.037 27.458,44.773 C27.597,44.479 27.947,44.353 28.241,44.496 ZM23.623,30.928 C23.507,31.073 23.337,31.148 23.166,31.148 C23.036,31.148 22.906,31.105 22.798,31.017 C22.546,30.811 22.506,30.439 22.709,30.184 C23.576,29.103 24.501,28.045 25.458,27.040 C25.683,26.804 26.054,26.797 26.288,27.024 C26.522,27.250 26.529,27.624 26.305,27.860 C25.370,28.840 24.468,29.873 23.623,30.928 ZM21.920,15.263 C21.810,15.358 21.675,15.404 21.541,15.404 C21.374,15.404 21.209,15.333 21.093,15.195 C20.883,14.946 20.913,14.573 21.160,14.362 C22.210,13.462 23.304,12.589 24.411,11.767 C24.671,11.572 25.039,11.628 25.231,11.891 C25.424,12.154 25.368,12.525 25.108,12.718 C24.022,13.525 22.950,14.381 21.920,15.263 ZM21.213,34.218 C20.460,35.346 19.748,36.520 19.096,37.706 C18.989,37.900 18.788,38.010 18.582,38.010 C18.486,38.010 18.388,37.987 18.298,37.936 C18.015,37.779 17.912,37.418 18.069,37.132 C18.737,35.916 19.468,34.714 20.240,33.557 C20.421,33.286 20.785,33.215 21.055,33.397 C21.324,33.579 21.395,33.947 21.213,34.218 ZM16.101,20.984 C15.984,21.115 15.824,21.182 15.663,21.182 C15.524,21.182 15.384,21.133 15.272,21.031 C15.030,20.814 15.009,20.440 15.225,20.196 C16.141,19.162 17.106,18.146 18.093,17.176 C18.325,16.948 18.697,16.952 18.923,17.186 C19.149,17.420 19.145,17.795 18.913,18.022 C17.945,18.974 16.999,19.971 16.101,20.984 ZM16.989,40.585 C17.285,40.718 17.418,41.067 17.287,41.367 C16.738,42.610 16.238,43.890 15.801,45.172 C15.717,45.417 15.490,45.572 15.246,45.572 C15.183,45.572 15.118,45.562 15.055,45.540 C14.749,45.434 14.586,45.097 14.691,44.788 C15.139,43.473 15.652,42.160 16.214,40.885 C16.346,40.588 16.694,40.452 16.989,40.585 ZM14.652,49.092 C14.327,50.409 14.056,51.757 13.846,53.098 C13.801,53.389 13.551,53.598 13.267,53.598 C13.237,53.598 13.206,53.595 13.175,53.590 C12.855,53.539 12.636,53.236 12.687,52.914 C12.902,51.539 13.180,50.157 13.512,48.806 C13.590,48.489 13.907,48.296 14.224,48.374 C14.538,48.454 14.730,48.775 14.652,49.092 ZM11.113,27.458 C10.999,27.628 10.814,27.720 10.625,27.720 C10.513,27.720 10.399,27.688 10.299,27.620 C10.030,27.438 9.958,27.070 10.139,26.799 C10.907,25.645 11.725,24.505 12.569,23.409 C12.768,23.151 13.137,23.103 13.393,23.305 C13.649,23.505 13.696,23.877 13.497,24.135 C12.668,25.209 11.866,26.328 11.113,27.458 ZM10.905,93.214 C11.653,94.352 12.448,95.474 13.266,96.551 C13.464,96.811 13.415,97.181 13.157,97.380 C13.051,97.463 12.925,97.503 12.801,97.503 C12.624,97.503 12.450,97.423 12.334,97.271 C11.500,96.173 10.690,95.028 9.927,93.869 C9.748,93.597 9.822,93.229 10.092,93.048 C10.361,92.867 10.725,92.942 10.905,93.214 ZM7.055,34.565 C6.953,34.776 6.745,34.897 6.527,34.897 C6.441,34.897 6.353,34.878 6.271,34.838 C5.979,34.695 5.858,34.340 6.000,34.047 C6.603,32.798 7.257,31.554 7.944,30.350 C8.107,30.067 8.465,29.970 8.746,30.132 C9.027,30.295 9.124,30.657 8.962,30.940 C8.288,32.121 7.646,33.341 7.055,34.565 ZM6.898,86.093 C7.482,87.320 8.115,88.541 8.780,89.724 C8.940,90.008 8.841,90.369 8.559,90.530 C8.468,90.582 8.368,90.607 8.270,90.607 C8.065,90.607 7.867,90.500 7.759,90.307 C7.080,89.102 6.435,87.856 5.840,86.605 C5.700,86.310 5.823,85.957 6.115,85.815 C6.409,85.673 6.759,85.799 6.898,86.093 ZM4.012,42.172 C3.932,42.422 3.701,42.582 3.454,42.582 C3.393,42.582 3.333,42.572 3.273,42.552 C2.964,42.452 2.795,42.118 2.895,41.807 C3.320,40.488 3.797,39.164 4.313,37.872 C4.435,37.568 4.777,37.423 5.077,37.544 C5.378,37.667 5.523,38.011 5.402,38.314 C4.896,39.581 4.428,40.879 4.012,42.172 ZM2.893,46.113 C2.566,47.432 2.283,48.781 2.048,50.122 C1.998,50.409 1.750,50.610 1.470,50.610 C1.437,50.610 1.402,50.608 1.368,50.602 C1.049,50.545 0.835,50.238 0.892,49.916 C1.131,48.548 1.421,47.173 1.753,45.826 C1.831,45.509 2.150,45.314 2.464,45.396 C2.779,45.475 2.971,45.795 2.893,46.113 ZM1.481,54.180 C1.340,55.529 1.243,56.905 1.192,58.269 C1.181,58.588 0.921,58.839 0.607,58.839 C0.599,58.839 0.592,58.839 0.584,58.838 C0.260,58.827 0.008,58.552 0.020,58.225 C0.071,56.835 0.169,55.432 0.314,54.056 C0.348,53.731 0.640,53.496 0.959,53.529 C1.281,53.564 1.515,53.855 1.481,54.180 ZM0.575,61.796 C0.901,61.782 1.170,62.042 1.180,62.369 C1.222,63.728 1.311,65.104 1.445,66.459 C1.477,66.784 1.242,67.074 0.920,67.107 C0.900,67.109 0.880,67.109 0.861,67.109 C0.563,67.109 0.307,66.882 0.277,66.577 C0.140,65.194 0.049,63.792 0.007,62.405 C-0.003,62.079 0.251,61.806 0.575,61.796 ZM1.311,70.037 C1.632,69.982 1.934,70.199 1.988,70.521 C2.216,71.866 2.492,73.216 2.809,74.535 C2.886,74.853 2.692,75.173 2.378,75.250 C2.331,75.262 2.284,75.266 2.239,75.266 C1.974,75.266 1.734,75.086 1.669,74.814 C1.344,73.469 1.063,72.091 0.831,70.720 C0.777,70.398 0.992,70.092 1.311,70.037 ZM3.168,78.097 C3.479,77.999 3.807,78.171 3.906,78.481 C4.316,79.781 4.775,81.080 5.272,82.342 C5.391,82.646 5.244,82.990 4.942,83.110 C4.871,83.139 4.798,83.153 4.726,83.153 C4.493,83.153 4.272,83.011 4.180,82.779 C3.674,81.491 3.205,80.166 2.787,78.841 C2.689,78.529 2.860,78.196 3.168,78.097 ZM12.702,61.848 C12.699,61.848 12.696,61.848 12.693,61.848 C12.373,61.848 12.111,61.589 12.106,61.266 C12.102,61.009 12.100,60.752 12.100,60.495 C12.100,59.358 12.140,58.209 12.219,57.078 C12.241,56.751 12.519,56.508 12.844,56.528 C13.168,56.551 13.412,56.834 13.389,57.160 C13.313,58.264 13.274,59.385 13.274,60.493 C13.274,60.744 13.276,60.996 13.280,61.247 C13.285,61.573 13.027,61.842 12.702,61.848 ZM12.950,69.594 C12.693,68.232 12.490,66.837 12.349,65.449 C12.317,65.123 12.551,64.832 12.874,64.799 C13.188,64.762 13.484,65.002 13.517,65.327 C13.655,66.683 13.852,68.044 14.103,69.373 C14.164,69.694 13.955,70.004 13.637,70.065 C13.599,70.071 13.562,70.075 13.526,70.075 C13.250,70.075 13.004,69.878 12.950,69.594 ZM14.311,72.942 C14.619,72.857 14.947,73.036 15.036,73.351 C15.403,74.657 15.831,75.962 16.310,77.231 C16.425,77.537 16.273,77.879 15.970,77.995 C15.901,78.022 15.831,78.034 15.761,78.034 C15.525,78.034 15.302,77.888 15.213,77.652 C14.722,76.351 14.283,75.012 13.907,73.673 C13.818,73.359 14.000,73.031 14.311,72.942 ZM15.849,99.716 C16.741,100.735 17.681,101.737 18.642,102.695 C18.873,102.925 18.875,103.300 18.647,103.532 C18.532,103.649 18.381,103.708 18.229,103.708 C18.080,103.708 17.931,103.651 17.817,103.537 C16.837,102.561 15.878,101.538 14.968,100.499 C14.754,100.254 14.777,99.880 15.020,99.663 C15.262,99.448 15.634,99.470 15.849,99.716 ZM17.131,80.709 C17.424,80.567 17.775,80.690 17.915,80.984 C18.502,82.205 19.149,83.416 19.839,84.582 C20.005,84.863 19.913,85.226 19.635,85.393 C19.541,85.449 19.437,85.476 19.335,85.476 C19.135,85.476 18.940,85.373 18.830,85.188 C18.124,83.993 17.460,82.752 16.858,81.499 C16.717,81.205 16.839,80.852 17.131,80.709 ZM21.632,105.475 C22.654,106.361 23.722,107.225 24.805,108.041 C25.065,108.237 25.118,108.608 24.924,108.869 C24.809,109.025 24.632,109.106 24.454,109.106 C24.331,109.106 24.208,109.069 24.103,108.989 C22.998,108.156 21.909,107.276 20.867,106.371 C20.621,106.158 20.593,105.785 20.805,105.537 C21.016,105.288 21.388,105.262 21.632,105.475 ZM25.446,52.270 C25.763,52.340 25.964,52.655 25.895,52.974 C25.610,54.292 25.399,55.644 25.266,56.994 C25.237,57.299 24.981,57.528 24.683,57.528 C24.664,57.528 24.644,57.526 24.624,57.525 C24.302,57.493 24.066,57.203 24.098,56.878 C24.235,55.483 24.454,54.085 24.748,52.722 C24.817,52.403 25.130,52.200 25.446,52.270 ZM24.513,92.043 C24.403,92.140 24.266,92.187 24.130,92.187 C23.966,92.187 23.802,92.117 23.686,91.981 C22.786,90.928 21.920,89.821 21.111,88.690 C20.922,88.426 20.981,88.055 21.244,87.864 C21.508,87.673 21.874,87.733 22.064,87.998 C22.853,89.102 23.698,90.181 24.575,91.209 C24.787,91.457 24.759,91.830 24.513,92.043 ZM24.505,60.479 C24.508,60.479 24.511,60.479 24.514,60.479 C24.834,60.479 25.096,60.738 25.101,61.062 C25.121,62.416 25.220,63.781 25.395,65.120 C25.437,65.444 25.211,65.741 24.890,65.784 C24.863,65.787 24.838,65.788 24.812,65.788 C24.522,65.788 24.270,65.572 24.231,65.274 C24.051,63.890 23.948,62.479 23.927,61.080 C23.922,60.753 24.181,60.484 24.505,60.479 ZM25.439,68.688 C25.755,68.609 26.073,68.800 26.152,69.117 C26.481,70.431 26.889,71.737 27.365,72.999 C27.481,73.304 27.329,73.646 27.025,73.762 C26.957,73.789 26.886,73.801 26.817,73.801 C26.580,73.801 26.357,73.656 26.268,73.420 C25.776,72.115 25.354,70.765 25.014,69.407 C24.934,69.090 25.125,68.768 25.439,68.688 ZM27.353,94.189 C28.314,95.137 29.331,96.055 30.374,96.918 C30.624,97.125 30.661,97.498 30.455,97.750 C30.339,97.893 30.170,97.967 30.001,97.967 C29.870,97.967 29.738,97.923 29.629,97.833 C28.560,96.948 27.518,96.007 26.532,95.036 C26.300,94.808 26.296,94.433 26.523,94.199 C26.749,93.966 27.120,93.961 27.353,94.189 ZM30.114,80.871 C29.335,79.711 28.616,78.496 27.977,77.259 C27.828,76.969 27.940,76.612 28.227,76.460 C28.515,76.310 28.869,76.423 29.018,76.712 C29.637,77.909 30.332,79.085 31.086,80.207 C31.268,80.477 31.198,80.846 30.929,81.028 C30.828,81.097 30.714,81.130 30.601,81.130 C30.413,81.130 30.228,81.039 30.114,80.871 ZM28.147,110.381 C29.283,111.119 30.458,111.827 31.640,112.484 C31.924,112.641 32.028,113.001 31.871,113.288 C31.764,113.484 31.563,113.594 31.356,113.594 C31.261,113.594 31.164,113.570 31.074,113.521 C29.868,112.850 28.669,112.129 27.510,111.376 C27.238,111.199 27.160,110.833 27.335,110.558 C27.511,110.283 27.874,110.204 28.147,110.381 ZM33.618,99.373 C34.729,100.141 35.888,100.869 37.060,101.536 C37.343,101.696 37.442,102.057 37.283,102.342 C37.175,102.535 36.976,102.643 36.771,102.643 C36.674,102.643 36.574,102.618 36.483,102.566 C35.281,101.882 34.094,101.137 32.954,100.349 C32.687,100.164 32.618,99.797 32.801,99.527 C32.985,99.257 33.349,99.188 33.618,99.373 ZM35.270,114.338 C36.497,114.911 37.758,115.448 39.020,115.933 C39.323,116.050 39.475,116.392 39.360,116.697 C39.270,116.934 39.047,117.078 38.811,117.078 C38.741,117.078 38.671,117.065 38.602,117.039 C37.314,116.544 36.027,115.996 34.776,115.412 C34.482,115.274 34.354,114.922 34.490,114.626 C34.626,114.329 34.974,114.200 35.270,114.338 ZM35.775,20.209 C35.679,20.267 35.574,20.294 35.471,20.294 C35.272,20.294 35.079,20.193 34.968,20.010 C34.800,19.730 34.888,19.366 35.165,19.197 C36.346,18.474 37.571,17.796 38.808,17.180 C39.098,17.035 39.451,17.155 39.594,17.448 C39.738,17.741 39.619,18.096 39.328,18.241 C38.121,18.841 36.926,19.504 35.775,20.209 ZM43.087,91.956 C42.979,92.149 42.780,92.257 42.575,92.257 C42.478,92.257 42.378,92.232 42.287,92.180 C41.081,91.494 39.900,90.728 38.777,89.903 C38.515,89.711 38.457,89.341 38.648,89.077 C38.839,88.812 39.205,88.754 39.468,88.947 C40.555,89.745 41.698,90.485 42.864,91.150 C43.146,91.311 43.246,91.672 43.087,91.956 ZM40.676,103.389 C41.903,103.951 43.169,104.465 44.439,104.917 C44.745,105.026 44.905,105.364 44.797,105.672 C44.712,105.916 44.485,106.067 44.244,106.067 C44.179,106.067 44.113,106.056 44.048,106.034 C42.746,105.570 41.448,105.043 40.190,104.466 C39.895,104.331 39.765,103.980 39.899,103.683 C40.032,103.386 40.379,103.253 40.676,103.389 ZM42.873,117.262 C44.163,117.656 45.485,118.011 46.802,118.315 C47.118,118.388 47.315,118.705 47.243,119.024 C47.181,119.298 46.939,119.483 46.671,119.483 C46.628,119.483 46.584,119.478 46.540,119.468 C45.196,119.158 43.848,118.797 42.532,118.394 C42.221,118.299 42.047,117.969 42.141,117.656 C42.235,117.343 42.562,117.166 42.873,117.262 ZM50.137,95.457 C50.084,95.457 50.029,95.449 49.974,95.434 C48.641,95.046 47.316,94.575 46.037,94.033 C45.738,93.906 45.598,93.559 45.724,93.258 C45.849,92.956 46.193,92.815 46.492,92.941 C47.729,93.465 49.010,93.921 50.300,94.296 C50.611,94.387 50.791,94.715 50.701,95.029 C50.627,95.288 50.392,95.457 50.137,95.457 ZM48.318,106.108 C49.619,106.445 50.954,106.729 52.285,106.952 C52.604,107.005 52.821,107.310 52.768,107.633 C52.720,107.922 52.471,108.127 52.189,108.127 C52.158,108.127 52.125,108.125 52.093,108.119 C50.728,107.891 49.360,107.600 48.026,107.254 C47.712,107.172 47.523,106.850 47.604,106.533 C47.685,106.217 48.010,106.028 48.318,106.108 ZM50.794,119.091 C52.127,119.301 53.485,119.468 54.830,119.586 C55.152,119.614 55.391,119.901 55.363,120.226 C55.337,120.534 55.080,120.766 54.779,120.766 C54.762,120.766 54.745,120.766 54.728,120.764 C53.356,120.645 51.972,120.474 50.612,120.260 C50.292,120.209 50.073,119.906 50.123,119.584 C50.173,119.261 50.471,119.039 50.794,119.091 ZM58.194,96.809 C56.805,96.741 55.409,96.590 54.045,96.361 C53.725,96.308 53.509,96.004 53.562,95.681 C53.615,95.358 53.912,95.138 54.237,95.194 C55.557,95.415 56.907,95.561 58.251,95.627 C58.575,95.643 58.825,95.921 58.809,96.247 C58.793,96.564 58.533,96.810 58.223,96.810 C58.213,96.810 58.203,96.810 58.194,96.809 ZM56.310,107.446 C57.525,107.541 58.763,107.590 59.989,107.590 L60.363,107.588 C60.364,107.588 60.366,107.588 60.367,107.588 C60.689,107.588 60.952,107.850 60.954,108.175 C60.956,108.502 60.695,108.769 60.371,108.771 L59.990,108.773 C58.733,108.773 57.464,108.723 56.218,108.626 C55.896,108.600 55.654,108.316 55.679,107.990 C55.704,107.663 55.971,107.421 56.310,107.446 ZM58.890,119.799 C60.238,119.825 61.608,119.804 62.957,119.737 C63.279,119.711 63.556,119.971 63.572,120.298 C63.588,120.624 63.339,120.902 63.015,120.919 C62.013,120.968 60.995,120.994 59.989,120.994 C59.614,120.994 59.241,120.990 58.868,120.984 C58.544,120.977 58.286,120.708 58.292,120.381 C58.298,120.054 58.557,119.805 58.890,119.799 ZM62.366,96.776 C62.352,96.777 62.339,96.778 62.327,96.778 C62.020,96.778 61.762,96.537 61.741,96.225 C61.720,95.898 61.965,95.616 62.289,95.595 C63.631,95.506 64.979,95.339 66.295,95.097 C66.615,95.040 66.920,95.252 66.978,95.573 C67.036,95.895 66.825,96.203 66.506,96.262 C65.146,96.512 63.753,96.685 62.366,96.776 ZM64.412,107.382 C65.757,107.254 67.108,107.066 68.429,106.823 C68.750,106.766 69.054,106.977 69.112,107.298 C69.170,107.620 68.959,107.928 68.640,107.987 C67.285,108.236 65.900,108.429 64.522,108.559 C64.504,108.561 64.485,108.562 64.467,108.562 C64.167,108.562 63.911,108.332 63.883,108.026 C63.853,107.700 64.090,107.412 64.412,107.382 ZM67.008,119.393 C68.351,119.232 69.702,119.022 71.026,118.769 C71.347,118.706 71.652,118.919 71.712,119.240 C71.773,119.561 71.563,119.871 71.245,119.932 C69.895,120.190 68.516,120.404 67.146,120.569 C67.123,120.571 67.099,120.573 67.077,120.573 C66.783,120.573 66.530,120.352 66.494,120.051 C66.456,119.725 66.686,119.431 67.008,119.393 ZM70.561,95.266 C70.504,95.284 70.446,95.292 70.389,95.292 C70.138,95.292 69.906,95.129 69.828,94.874 C69.733,94.562 69.907,94.231 70.218,94.135 C71.500,93.738 72.774,93.262 74.002,92.719 C74.301,92.587 74.645,92.723 74.775,93.023 C74.906,93.322 74.770,93.671 74.474,93.802 C73.204,94.364 71.888,94.856 70.561,95.266 ZM72.383,105.914 C73.682,105.555 74.981,105.133 76.242,104.661 C76.545,104.548 76.884,104.704 76.997,105.010 C77.109,105.316 76.955,105.656 76.650,105.770 C75.357,106.254 74.026,106.687 72.694,107.056 C72.641,107.070 72.589,107.077 72.538,107.077 C72.280,107.077 72.044,106.904 71.973,106.642 C71.887,106.326 72.071,106.000 72.383,105.914 ZM74.991,117.865 C76.295,117.520 77.605,117.122 78.884,116.685 C79.193,116.582 79.525,116.746 79.629,117.056 C79.732,117.365 79.568,117.702 79.261,117.806 C77.956,118.252 76.620,118.657 75.289,119.010 C75.239,119.023 75.189,119.029 75.139,119.029 C74.879,119.029 74.642,118.854 74.573,118.588 C74.490,118.271 74.677,117.948 74.991,117.865 ZM77.893,91.972 C77.692,91.972 77.496,91.867 77.386,91.679 C77.223,91.397 77.316,91.035 77.596,90.870 C78.753,90.187 79.883,89.428 80.955,88.614 C81.216,88.416 81.583,88.470 81.777,88.731 C81.972,88.991 81.921,89.363 81.661,89.559 C80.553,90.400 79.385,91.185 78.189,91.890 C78.096,91.946 77.994,91.972 77.893,91.972 ZM79.976,103.073 C81.190,102.493 82.396,101.850 83.560,101.163 C83.839,100.998 84.199,101.093 84.363,101.375 C84.527,101.657 84.433,102.019 84.153,102.184 C82.960,102.889 81.723,103.548 80.479,104.143 C80.398,104.181 80.312,104.200 80.228,104.200 C80.008,104.200 79.798,104.075 79.697,103.861 C79.558,103.566 79.683,103.213 79.976,103.073 ZM82.681,115.238 C83.924,114.714 85.165,114.138 86.371,113.527 C86.664,113.381 87.014,113.499 87.159,113.791 C87.305,114.082 87.188,114.438 86.899,114.585 C85.668,115.208 84.402,115.795 83.134,116.330 C83.060,116.361 82.983,116.376 82.908,116.376 C82.678,116.376 82.461,116.239 82.366,116.012 C82.241,115.711 82.382,115.364 82.681,115.238 ZM86.967,98.946 C88.066,98.161 89.144,97.317 90.171,96.440 C90.418,96.229 90.789,96.260 90.998,96.509 C91.208,96.759 91.177,97.132 90.930,97.343 C89.877,98.242 88.772,99.106 87.645,99.912 C87.542,99.985 87.424,100.021 87.307,100.021 C87.123,100.021 86.942,99.934 86.828,99.771 C86.640,99.505 86.702,99.135 86.967,98.946 ZM89.936,111.562 C91.096,110.871 92.247,110.127 93.359,109.354 C93.626,109.167 93.992,109.236 94.176,109.504 C94.360,109.774 94.293,110.142 94.026,110.328 C92.892,111.117 91.717,111.875 90.535,112.581 C90.441,112.637 90.338,112.663 90.236,112.663 C90.036,112.663 89.840,112.560 89.731,112.373 C89.566,112.092 89.658,111.729 89.936,111.562 ZM96.706,90.565 C96.955,90.775 96.989,91.147 96.781,91.398 C95.896,92.468 94.954,93.511 93.983,94.498 C93.868,94.614 93.717,94.673 93.566,94.673 C93.416,94.673 93.267,94.616 93.153,94.501 C92.922,94.271 92.921,93.896 93.149,93.664 C94.097,92.702 95.016,91.684 95.880,90.640 C96.087,90.390 96.456,90.355 96.706,90.565 ZM94.663,68.126 C94.979,68.200 95.174,68.518 95.100,68.837 C94.783,70.198 94.383,71.556 93.910,72.872 C93.823,73.112 93.598,73.262 93.358,73.262 C93.291,73.262 93.224,73.251 93.158,73.227 C92.853,73.116 92.696,72.776 92.806,72.469 C93.263,71.196 93.651,69.883 93.957,68.567 C94.032,68.247 94.347,68.052 94.663,68.126 ZM90.932,42.971 C91.215,42.814 91.573,42.922 91.728,43.209 C92.388,44.439 92.983,45.721 93.496,47.017 C93.617,47.321 93.470,47.665 93.169,47.786 C93.098,47.815 93.024,47.829 92.951,47.829 C92.719,47.829 92.498,47.688 92.406,47.456 C91.910,46.202 91.334,44.963 90.695,43.773 C90.541,43.485 90.647,43.126 90.932,42.971 ZM92.001,75.946 C92.291,76.092 92.408,76.447 92.263,76.740 C91.642,77.991 90.942,79.218 90.182,80.388 C90.069,80.562 89.882,80.656 89.691,80.656 C89.581,80.656 89.469,80.625 89.370,80.559 C89.098,80.380 89.023,80.013 89.200,79.740 C89.935,78.608 90.613,77.420 91.213,76.210 C91.358,75.918 91.710,75.799 92.001,75.946 ZM87.623,82.936 C87.872,83.145 87.906,83.518 87.698,83.769 C86.809,84.843 85.849,85.876 84.845,86.840 C84.731,86.948 84.586,87.002 84.440,87.002 C84.285,87.002 84.130,86.941 84.015,86.818 C83.791,86.582 83.801,86.207 84.036,85.982 C85.008,85.050 85.936,84.051 86.797,83.011 C87.003,82.761 87.373,82.726 87.623,82.936 ZM86.943,36.334 C87.864,37.378 88.736,38.487 89.532,39.633 C89.719,39.899 89.654,40.269 89.389,40.456 C89.286,40.530 89.169,40.564 89.053,40.564 C88.867,40.564 88.686,40.476 88.572,40.312 C87.800,39.204 86.958,38.131 86.066,37.120 C85.851,36.876 85.873,36.502 86.114,36.286 C86.356,36.068 86.728,36.089 86.943,36.334 ZM95.431,58.745 C95.743,58.726 96.026,58.991 96.036,59.318 C96.049,59.709 96.055,60.100 96.054,60.494 C96.054,61.892 95.974,63.305 95.817,64.692 C95.782,64.994 95.529,65.216 95.234,65.216 C95.212,65.216 95.190,65.215 95.167,65.213 C94.845,65.175 94.614,64.882 94.651,64.558 C94.803,63.215 94.881,61.848 94.881,60.493 C94.881,60.112 94.875,59.732 94.863,59.356 C94.853,59.028 95.107,58.756 95.431,58.745 ZM99.714,104.249 C99.953,104.029 100.325,104.045 100.544,104.286 C100.763,104.527 100.747,104.901 100.507,105.122 C99.488,106.063 98.428,106.976 97.354,107.838 C97.246,107.924 97.117,107.967 96.989,107.967 C96.816,107.967 96.645,107.891 96.530,107.744 C96.328,107.488 96.370,107.116 96.623,106.912 C97.675,106.067 98.715,105.172 99.714,104.249 ZM98.821,88.320 C98.705,88.320 98.589,88.286 98.486,88.214 C98.220,88.027 98.155,87.658 98.340,87.390 C99.110,86.275 99.841,85.114 100.513,83.936 C100.675,83.653 101.034,83.556 101.315,83.718 C101.596,83.882 101.693,84.243 101.531,84.526 C100.842,85.734 100.093,86.925 99.303,88.067 C99.189,88.231 99.007,88.320 98.821,88.320 ZM99.941,34.946 C100.217,34.775 100.579,34.860 100.749,35.138 C101.477,36.324 102.159,37.555 102.780,38.795 C102.925,39.087 102.809,39.442 102.519,39.589 C102.435,39.633 102.344,39.653 102.256,39.653 C102.041,39.653 101.834,39.534 101.731,39.327 C101.126,38.118 100.460,36.918 99.751,35.760 C99.581,35.482 99.666,35.118 99.941,34.946 ZM103.927,76.525 C104.037,76.217 104.375,76.059 104.679,76.170 C104.983,76.281 105.141,76.620 105.030,76.928 C104.559,78.239 104.026,79.543 103.445,80.805 C103.345,81.020 103.134,81.146 102.912,81.146 C102.829,81.146 102.745,81.129 102.665,81.092 C102.371,80.954 102.244,80.602 102.380,80.306 C102.947,79.075 103.467,77.803 103.927,76.525 ZM105.319,98.312 C105.525,98.062 105.895,98.026 106.145,98.234 C106.395,98.443 106.429,98.816 106.222,99.068 C105.343,100.137 104.417,101.189 103.468,102.195 C103.353,102.317 103.197,102.378 103.043,102.378 C102.897,102.378 102.751,102.324 102.638,102.215 C102.403,101.990 102.394,101.616 102.617,101.378 C103.548,100.393 104.457,99.362 105.319,98.312 ZM104.731,46.913 C104.343,45.612 103.893,44.313 103.395,43.053 C103.275,42.749 103.421,42.405 103.723,42.284 C104.022,42.162 104.365,42.310 104.485,42.614 C104.997,43.906 105.457,45.238 105.855,46.572 C105.948,46.885 105.772,47.215 105.462,47.308 C105.406,47.326 105.349,47.334 105.293,47.334 C105.040,47.334 104.807,47.168 104.731,46.913 ZM106.687,68.150 C107.006,68.206 107.220,68.513 107.164,68.834 C106.926,70.209 106.627,71.587 106.273,72.928 C106.203,73.193 105.966,73.368 105.706,73.368 C105.656,73.368 105.605,73.361 105.555,73.348 C105.241,73.264 105.055,72.940 105.138,72.624 C105.483,71.316 105.776,69.973 106.008,68.631 C106.064,68.310 106.362,68.097 106.687,68.150 ZM110.062,91.655 C110.233,91.376 110.595,91.291 110.871,91.463 C111.146,91.635 111.231,91.999 111.061,92.278 C110.339,93.454 109.564,94.624 108.758,95.757 C108.643,95.918 108.463,96.004 108.280,96.004 C108.162,96.004 108.042,95.967 107.939,95.893 C107.675,95.702 107.615,95.332 107.804,95.067 C108.595,93.956 109.355,92.808 110.062,91.655 ZM117.578,72.705 C117.854,71.372 118.087,70.014 118.272,68.667 C118.315,68.344 118.602,68.117 118.933,68.161 C119.254,68.206 119.479,68.504 119.434,68.829 C119.247,70.202 119.008,71.588 118.726,72.947 C118.669,73.226 118.425,73.418 118.153,73.418 C118.113,73.418 118.072,73.414 118.032,73.406 C117.715,73.338 117.511,73.025 117.578,72.705 Z"/>
</svg>