<svg 
 xmlns="http://www.w3.org/2000/svg"
 xmlns:xlink="http://www.w3.org/1999/xlink"
 width="126px" height="53px">
<path fill-rule="evenodd"  fill="rgb(254, 62, 87)"
 d="M124.259,36.491 C123.298,36.491 122.518,35.713 122.518,34.753 C122.518,33.794 123.298,33.016 124.259,33.016 C125.220,33.016 126.000,33.794 126.000,34.753 C126.000,35.713 125.220,36.491 124.259,36.491 ZM124.259,19.983 C123.298,19.983 122.518,19.205 122.518,18.245 C122.518,17.286 123.298,16.508 124.259,16.508 C125.220,16.508 126.000,17.286 126.000,18.245 C126.000,19.205 125.220,19.983 124.259,19.983 ZM124.259,3.475 C123.298,3.475 122.518,2.697 122.518,1.737 C122.518,0.778 123.298,-0.001 124.259,-0.001 C125.220,-0.001 126.000,0.778 126.000,1.737 C126.000,2.697 125.220,3.475 124.259,3.475 ZM110.549,52.999 C109.588,52.999 108.808,52.221 108.808,51.262 C108.808,50.302 109.588,49.523 110.549,49.523 C111.511,49.523 112.290,50.302 112.290,51.262 C112.290,52.221 111.511,52.999 110.549,52.999 ZM110.549,36.491 C109.588,36.491 108.808,35.713 108.808,34.753 C108.808,33.794 109.588,33.016 110.549,33.016 C111.511,33.016 112.290,33.794 112.290,34.753 C112.290,35.713 111.511,36.491 110.549,36.491 ZM110.549,19.983 C109.588,19.983 108.808,19.205 108.808,18.245 C108.808,17.286 109.588,16.508 110.549,16.508 C111.511,16.508 112.290,17.286 112.290,18.245 C112.290,19.205 111.511,19.983 110.549,19.983 ZM110.549,3.475 C109.588,3.475 108.808,2.697 108.808,1.737 C108.808,0.778 109.588,-0.001 110.549,-0.001 C111.511,-0.001 112.290,0.778 112.290,1.737 C112.290,2.697 111.511,3.475 110.549,3.475 ZM97.057,52.999 C96.095,52.999 95.316,52.221 95.316,51.262 C95.316,50.302 96.095,49.523 97.057,49.523 C98.018,49.523 98.798,50.302 98.798,51.262 C98.798,52.221 98.018,52.999 97.057,52.999 ZM97.057,36.491 C96.095,36.491 95.316,35.713 95.316,34.753 C95.316,33.794 96.095,33.016 97.057,33.016 C98.018,33.016 98.798,33.794 98.798,34.753 C98.798,35.713 98.018,36.491 97.057,36.491 ZM97.057,19.983 C96.095,19.983 95.316,19.205 95.316,18.245 C95.316,17.286 96.095,16.508 97.057,16.508 C98.018,16.508 98.798,17.286 98.798,18.245 C98.798,19.205 98.018,19.983 97.057,19.983 ZM97.057,3.475 C96.095,3.475 95.316,2.697 95.316,1.737 C95.316,0.778 96.095,-0.001 97.057,-0.001 C98.018,-0.001 98.798,0.778 98.798,1.737 C98.798,2.697 98.018,3.475 97.057,3.475 ZM83.347,52.999 C82.386,52.999 81.606,52.221 81.606,51.262 C81.606,50.302 82.386,49.523 83.347,49.523 C84.309,49.523 85.088,50.302 85.088,51.262 C85.088,52.221 84.309,52.999 83.347,52.999 ZM83.347,36.491 C82.386,36.491 81.606,35.713 81.606,34.753 C81.606,33.794 82.386,33.016 83.347,33.016 C84.309,33.016 85.088,33.794 85.088,34.753 C85.088,35.713 84.309,36.491 83.347,36.491 ZM83.347,19.983 C82.386,19.983 81.606,19.205 81.606,18.245 C81.606,17.286 82.386,16.508 83.347,16.508 C84.309,16.508 85.088,17.286 85.088,18.245 C85.088,19.205 84.309,19.983 83.347,19.983 ZM83.347,3.475 C82.386,3.475 81.606,2.697 81.606,1.737 C81.606,0.778 82.386,-0.001 83.347,-0.001 C84.309,-0.001 85.088,0.778 85.088,1.737 C85.088,2.697 84.309,3.475 83.347,3.475 ZM69.855,52.999 C68.893,52.999 68.114,52.221 68.114,51.262 C68.114,50.302 68.893,49.523 69.855,49.523 C70.816,49.523 71.596,50.302 71.596,51.262 C71.596,52.221 70.816,52.999 69.855,52.999 ZM69.855,36.491 C68.893,36.491 68.114,35.713 68.114,34.753 C68.114,33.794 68.893,33.016 69.855,33.016 C70.816,33.016 71.596,33.794 71.596,34.753 C71.596,35.713 70.816,36.491 69.855,36.491 ZM69.855,19.983 C68.893,19.983 68.114,19.205 68.114,18.245 C68.114,17.286 68.893,16.508 69.855,16.508 C70.816,16.508 71.596,17.286 71.596,18.245 C71.596,19.205 70.816,19.983 69.855,19.983 ZM69.855,3.475 C68.893,3.475 68.114,2.697 68.114,1.737 C68.114,0.778 68.893,-0.001 69.855,-0.001 C70.816,-0.001 71.596,0.778 71.596,1.737 C71.596,2.697 70.816,3.475 69.855,3.475 ZM56.145,52.999 C55.183,52.999 54.404,52.221 54.404,51.262 C54.404,50.302 55.183,49.523 56.145,49.523 C57.106,49.523 57.886,50.302 57.886,51.262 C57.886,52.221 57.106,52.999 56.145,52.999 ZM56.145,36.491 C55.183,36.491 54.404,35.713 54.404,34.753 C54.404,33.794 55.183,33.016 56.145,33.016 C57.106,33.016 57.886,33.794 57.886,34.753 C57.886,35.713 57.106,36.491 56.145,36.491 ZM56.145,19.983 C55.183,19.983 54.404,19.205 54.404,18.245 C54.404,17.286 55.183,16.508 56.145,16.508 C57.106,16.508 57.886,17.286 57.886,18.245 C57.886,19.205 57.106,19.983 56.145,19.983 ZM56.145,3.475 C55.183,3.475 54.404,2.697 54.404,1.737 C54.404,0.778 55.183,-0.001 56.145,-0.001 C57.106,-0.001 57.886,0.778 57.886,1.737 C57.886,2.697 57.106,3.475 56.145,3.475 ZM42.653,52.999 C41.691,52.999 40.912,52.221 40.912,51.262 C40.912,50.302 41.691,49.523 42.653,49.523 C43.614,49.523 44.394,50.302 44.394,51.262 C44.394,52.221 43.614,52.999 42.653,52.999 ZM42.653,36.491 C41.691,36.491 40.912,35.713 40.912,34.753 C40.912,33.794 41.691,33.016 42.653,33.016 C43.614,33.016 44.394,33.794 44.394,34.753 C44.394,35.713 43.614,36.491 42.653,36.491 ZM42.653,19.983 C41.691,19.983 40.912,19.205 40.912,18.245 C40.912,17.286 41.691,16.508 42.653,16.508 C43.614,16.508 44.394,17.286 44.394,18.245 C44.394,19.205 43.614,19.983 42.653,19.983 ZM42.653,3.475 C41.691,3.475 40.912,2.697 40.912,1.737 C40.912,0.778 41.691,-0.001 42.653,-0.001 C43.614,-0.001 44.394,0.778 44.394,1.737 C44.394,2.697 43.614,3.475 42.653,3.475 ZM28.943,52.999 C27.981,52.999 27.202,52.221 27.202,51.262 C27.202,50.302 27.981,49.523 28.943,49.523 C29.904,49.523 30.684,50.302 30.684,51.262 C30.684,52.221 29.904,52.999 28.943,52.999 ZM28.943,36.491 C27.981,36.491 27.202,35.713 27.202,34.753 C27.202,33.794 27.981,33.016 28.943,33.016 C29.904,33.016 30.684,33.794 30.684,34.753 C30.684,35.713 29.904,36.491 28.943,36.491 ZM28.943,19.983 C27.981,19.983 27.202,19.205 27.202,18.245 C27.202,17.286 27.981,16.508 28.943,16.508 C29.904,16.508 30.684,17.286 30.684,18.245 C30.684,19.205 29.904,19.983 28.943,19.983 ZM28.943,3.475 C27.981,3.475 27.202,2.697 27.202,1.737 C27.202,0.778 27.981,-0.001 28.943,-0.001 C29.904,-0.001 30.684,0.778 30.684,1.737 C30.684,2.697 29.904,3.475 28.943,3.475 ZM15.451,52.999 C14.489,52.999 13.710,52.221 13.710,51.262 C13.710,50.302 14.489,49.523 15.451,49.523 C16.412,49.523 17.192,50.302 17.192,51.262 C17.192,52.221 16.412,52.999 15.451,52.999 ZM15.451,36.491 C14.489,36.491 13.710,35.713 13.710,34.753 C13.710,33.794 14.489,33.016 15.451,33.016 C16.412,33.016 17.192,33.794 17.192,34.753 C17.192,35.713 16.412,36.491 15.451,36.491 ZM15.451,19.983 C14.489,19.983 13.710,19.205 13.710,18.245 C13.710,17.286 14.489,16.508 15.451,16.508 C16.412,16.508 17.192,17.286 17.192,18.245 C17.192,19.205 16.412,19.983 15.451,19.983 ZM15.451,3.475 C14.489,3.475 13.710,2.697 13.710,1.737 C13.710,0.778 14.489,-0.001 15.451,-0.001 C16.412,-0.001 17.192,0.778 17.192,1.737 C17.192,2.697 16.412,3.475 15.451,3.475 ZM1.741,52.999 C0.779,52.999 -0.000,52.221 -0.000,51.262 C-0.000,50.302 0.779,49.523 1.741,49.523 C2.702,49.523 3.482,50.302 3.482,51.262 C3.482,52.221 2.702,52.999 1.741,52.999 ZM1.741,36.491 C0.779,36.491 -0.000,35.713 -0.000,34.753 C-0.000,33.794 0.779,33.016 1.741,33.016 C2.702,33.016 3.482,33.794 3.482,34.753 C3.482,35.713 2.702,36.491 1.741,36.491 ZM1.741,19.983 C0.779,19.983 -0.000,19.205 -0.000,18.245 C-0.000,17.286 0.779,16.508 1.741,16.508 C2.702,16.508 3.482,17.286 3.482,18.245 C3.482,19.205 2.702,19.983 1.741,19.983 ZM1.741,3.475 C0.779,3.475 -0.000,2.697 -0.000,1.737 C-0.000,0.778 0.779,-0.001 1.741,-0.001 C2.702,-0.001 3.482,0.778 3.482,1.737 C3.482,2.697 2.702,3.475 1.741,3.475 ZM124.259,49.523 C125.220,49.523 126.000,50.302 126.000,51.262 C126.000,52.221 125.220,52.999 124.259,52.999 C123.298,52.999 122.518,52.221 122.518,51.262 C122.518,50.302 123.298,49.523 124.259,49.523 Z"/>
</svg>