<svg xmlns="http://www.w3.org/2000/svg" xmlns:xlink="http://www.w3.org/1999/xlink" width="22px" height="20px">
<path fill-rule="evenodd" fill="rgb(41, 40, 45)" d="M21.993,4.719 L19.991,12.756 C19.900,13.120 19.570,13.377 19.192,13.377 L6.379,13.377 C5.998,13.377 5.667,13.118 5.578,12.749 L2.903,1.634 L0.837,1.634 C0.382,1.634 0.014,1.269 0.014,0.817 C0.014,0.365 0.382,-0.000 0.837,-0.000 L3.553,-0.000 C3.934,-0.000 4.265,0.259 4.354,0.627 L5.094,3.704 L21.194,3.704 C21.448,3.704 21.687,3.820 21.842,4.018 C21.998,4.217 22.054,4.475 21.993,4.719 ZM5.488,5.340 L7.029,11.742 L18.548,11.742 L20.143,5.340 L5.488,5.340 ZM7.476,14.548 C8.989,14.548 10.220,15.771 10.220,17.273 C10.220,18.776 8.989,19.997 7.476,19.997 C5.963,19.997 4.733,18.776 4.733,17.273 C4.733,15.771 5.963,14.548 7.476,14.548 ZM7.476,18.363 C8.082,18.363 8.574,17.873 8.574,17.273 C8.574,16.672 8.082,16.183 7.476,16.183 C6.871,16.183 6.379,16.672 6.379,17.273 C6.379,17.873 6.871,18.363 7.476,18.363 ZM17.436,14.548 C18.949,14.548 20.179,15.771 20.179,17.273 C20.179,18.776 18.949,19.997 17.436,19.997 C15.923,19.997 14.692,18.776 14.692,17.273 C14.692,15.771 15.923,14.548 17.436,14.548 ZM17.436,18.363 C18.041,18.363 18.533,17.873 18.533,17.273 C18.533,16.672 18.041,16.183 17.436,16.183 C16.830,16.183 16.338,16.672 16.338,17.273 C16.338,17.873 16.830,18.363 17.436,18.363 Z" />
</svg>