<svg 
 xmlns="http://www.w3.org/2000/svg"
 xmlns:xlink="http://www.w3.org/1999/xlink"
 width="20px" height="21px">
<path fill-rule="evenodd"  fill="rgb(254, 62, 87)"
 d="M17.071,17.622 C15.182,19.510 12.671,20.550 10.000,20.550 C7.329,20.550 4.818,19.510 2.929,17.622 C1.040,15.733 -0.000,13.221 -0.000,10.550 C-0.000,7.879 1.040,5.368 2.929,3.479 C4.818,1.591 7.329,0.551 10.000,0.551 C12.671,0.551 15.182,1.591 17.071,3.479 C18.960,5.368 20.000,7.879 20.000,10.550 C20.000,13.221 18.960,15.733 17.071,17.622 ZM10.000,1.722 C5.132,1.722 1.172,5.682 1.172,10.550 C1.172,15.418 5.132,19.378 10.000,19.378 C14.868,19.378 18.828,15.418 18.828,10.550 C18.828,5.682 14.868,1.722 10.000,1.722 ZM9.189,13.759 C9.075,13.873 8.925,13.930 8.775,13.930 C8.625,13.930 8.475,13.873 8.360,13.759 L5.222,10.621 C4.994,10.392 4.994,10.021 5.222,9.792 C5.451,9.563 5.822,9.563 6.051,9.792 L8.775,12.516 L13.949,7.342 C14.178,7.113 14.549,7.113 14.777,7.342 C15.006,7.571 15.006,7.942 14.777,8.170 L9.189,13.759 Z"/>
</svg>