<svg xmlns="http://www.w3.org/2000/svg" xmlns:xlink="http://www.w3.org/1999/xlink" width="20px" height="20px">
<path fill-rule="evenodd" fill="rgb(41, 40, 45)" d="M17.071,12.928 C15.982,11.838 14.685,11.032 13.271,10.544 C14.786,9.501 15.781,7.755 15.781,5.780 C15.781,2.592 13.188,-0.001 10.000,-0.001 C6.812,-0.001 4.219,2.592 4.219,5.780 C4.219,7.755 5.214,9.501 6.729,10.544 C5.314,11.032 4.018,11.838 2.929,12.928 C1.040,14.817 -0.000,17.328 -0.000,19.998 L1.562,19.998 C1.562,15.346 5.347,11.562 10.000,11.562 C14.652,11.562 18.437,15.346 18.437,19.998 L20.000,19.998 C20.000,17.328 18.960,14.817 17.071,12.928 ZM5.781,5.780 C5.781,3.453 7.674,1.561 10.000,1.561 C12.326,1.561 14.219,3.453 14.219,5.780 C14.219,8.106 12.326,9.999 10.000,9.999 C7.674,9.999 5.781,8.106 5.781,5.780 Z" />
</svg>